<svg width="14" height="19" viewBox="0 0 14 19" fill="none" xmlns="http://www.w3.org/2000/svg">
<path d="M6.66667 2.5V0L3.33333 3.33333L6.66667 6.66667V4.16667C9.425 4.16667 11.6667 6.40833 11.6667 9.16667C11.6667 10.0083 11.4583 10.8083 11.0833 11.5L12.3 12.7167C12.95 11.6917 13.3333 10.475 13.3333 9.16667C13.3333 5.48333 10.35 2.5 6.66667 2.5ZM6.66667 14.1667C3.90833 14.1667 1.66667 11.925 1.66667 9.16667C1.66667 8.325 1.875 7.525 2.25 6.83333L1.03333 5.61667C0.383333 6.64167 0 7.85833 0 9.16667C0 12.85 2.98333 15.8333 6.66667 15.8333V18.3333L10 15L6.66667 11.6667V14.1667Z" fill="white"/>
</svg>
