<svg width="22" height="18" viewBox="0 0 22 18" fill="none" xmlns="http://www.w3.org/2000/svg">
<path d="M2.16667 0H19.5C20.0746 0 20.6257 0.228273 21.0321 0.634602C21.4384 1.04093 21.6667 1.59203 21.6667 2.16667V15.1667C21.6667 15.7413 21.4384 16.2924 21.0321 16.6987C20.6257 17.1051 20.0746 17.3333 19.5 17.3333H2.16667C1.59203 17.3333 1.04093 17.1051 0.634602 16.6987C0.228273 16.2924 0 15.7413 0 15.1667V2.16667C0 1.59203 0.228273 1.04093 0.634602 0.634602C1.04093 0.228273 1.59203 0 2.16667 0ZM2.16667 2.16667V15.1667H9.75V2.16667H2.16667ZM19.5 15.1667V2.16667H18.1567C18.4167 2.75167 18.3625 3.32583 18.3625 3.39083C18.2867 4.11667 17.7775 4.875 17.5933 5.14583L15.0692 7.90833L18.6658 7.88667L18.6767 9.20833L13.0433 9.17583L13 8.0925C13 8.0925 16.3042 4.59333 16.4667 4.27917C16.6183 3.97583 17.2358 2.16667 15.7083 2.16667C14.3758 2.22083 14.5275 3.575 14.5275 3.575L12.8592 3.58583C12.8592 3.58583 12.87 2.87083 13.2708 2.16667H11.9167V15.1667H14.7117L14.7008 14.235L15.7517 14.2242C15.7517 14.2242 16.7375 14.0508 16.7483 13.0867C16.7917 12.0033 15.8708 12.0033 15.7083 12.0033C15.5675 12.0033 14.5492 12.0575 14.5492 12.9458H12.9025C12.9025 12.9458 12.9458 10.7142 15.7083 10.7142C18.525 10.7142 18.3733 12.9025 18.3733 12.9025C18.3733 12.9025 18.4167 14.2567 17.1708 14.7658L17.7342 15.1667H19.5ZM7.49667 13H5.87167V6.71667L3.92167 7.32333V5.99083L7.32333 4.7775H7.49667V13Z" fill="#0A4BA9"/>
</svg>
