<svg width="26" height="26" viewBox="0 0 26 26" fill="none" xmlns="http://www.w3.org/2000/svg">
<path d="M24.9173 8.66672C24.915 6.94682 24.328 5.27881 23.2528 3.93641C22.1777 2.59401 20.6781 1.65697 19.0002 1.27907C17.3223 0.901175 15.5658 1.10486 14.019 1.85671C12.4721 2.60855 11.2268 3.8639 10.4873 5.41672H7.58398V7.58339H4.87565C4.53723 7.58287 4.20709 7.68803 3.93131 7.88418C3.65553 8.08034 3.44787 8.3577 3.33732 8.67756L1.08398 15.1667V23.8334C1.08398 24.1207 1.19812 24.3963 1.40129 24.5994C1.60445 24.8026 1.88 24.9167 2.16732 24.9167H3.25065C3.53797 24.9167 3.81352 24.8026 4.01668 24.5994C4.21985 24.3963 4.33398 24.1207 4.33398 23.8334V22.7501H17.334V23.8334C17.334 24.1207 17.4481 24.3963 17.6513 24.5994C17.8544 24.8026 18.13 24.9167 18.4173 24.9167H19.5007C19.788 24.9167 20.0635 24.8026 20.2667 24.5994C20.4698 24.3963 20.584 24.1207 20.584 23.8334V15.5134C21.879 14.8977 22.9732 13.9279 23.7401 12.7163C24.5069 11.5046 24.9151 10.1006 24.9173 8.66672V8.66672ZM4.87565 9.20839H9.78315C9.90745 11.0556 10.71 12.7918 12.0365 14.0834H3.25065L4.87565 9.20839ZM4.87565 19.5001C4.44467 19.5001 4.03135 19.3289 3.7266 19.0241C3.42186 18.7194 3.25065 18.306 3.25065 17.8751C3.25065 17.4441 3.42186 17.0308 3.7266 16.726C4.03135 16.4213 4.44467 16.2501 4.87565 16.2501C5.30663 16.2501 5.71995 16.4213 6.0247 16.726C6.32945 17.0308 6.50065 17.4441 6.50065 17.8751C6.50065 18.306 6.32945 18.7194 6.0247 19.0241C5.71995 19.3289 5.30663 19.5001 4.87565 19.5001ZM16.7923 19.5001C16.3613 19.5001 15.948 19.3289 15.6433 19.0241C15.3385 18.7194 15.1673 18.306 15.1673 17.8751C15.1673 17.4441 15.3385 17.0308 15.6433 16.726C15.948 16.4213 16.3613 16.2501 16.7923 16.2501C17.2233 16.2501 17.6366 16.4213 17.9414 16.726C18.2461 17.0308 18.4173 17.4441 18.4173 17.8751C18.4173 18.306 18.2461 18.7194 17.9414 19.0241C17.6366 19.3289 17.2233 19.5001 16.7923 19.5001V19.5001ZM19.9665 13.4009L19.739 13.5201L19.544 13.6176C19.395 13.6822 19.2432 13.74 19.089 13.7909L18.8507 13.8667L18.6015 13.9317L18.3848 13.9859C17.6444 14.1315 16.8818 14.1208 16.1458 13.9544C15.4098 13.7881 14.7167 13.4699 14.1109 13.0201C13.5051 12.5703 12.9999 11.9989 12.6277 11.3425C12.2556 10.6861 12.0247 9.95922 11.9498 9.20839C11.9279 9.02867 11.917 8.84777 11.9173 8.66672L11.939 8.15756L11.9607 7.97339L12.004 7.67006L12.0473 7.44256L12.1015 7.21506L12.1773 6.95506L12.2315 6.81422C12.6602 5.61221 13.5003 4.60061 14.6031 3.95847C15.7059 3.31633 17.0004 3.08505 18.2573 3.30557C19.5143 3.52609 20.6527 4.18419 21.4711 5.16339C22.2895 6.14259 22.7351 7.37974 22.729 8.65589C22.7377 9.62212 22.4857 10.5728 21.9995 11.4079C21.5134 12.2429 20.811 12.9314 19.9665 13.4009V13.4009ZM16.2507 4.33339H18.4173V9.75006H16.2507V4.33339ZM16.2507 10.8334H18.4173V13.0001H16.2507V10.8334Z" fill="#0A4BA9"/>
</svg>
