<svg width="23" height="21" viewBox="0 0 23 21" fill="none" xmlns="http://www.w3.org/2000/svg">
<path d="M7.58333 9.75L9.20833 4.875H18.9583L20.5833 9.75H7.58333ZM18.9583 15.1667C18.5274 15.1667 18.114 14.9955 17.8093 14.6907C17.5045 14.386 17.3333 13.9726 17.3333 13.5417C17.3333 13.1107 17.5045 12.6974 17.8093 12.3926C18.114 12.0879 18.5274 11.9167 18.9583 11.9167C19.3893 11.9167 19.8026 12.0879 20.1074 12.3926C20.4121 12.6974 20.5833 13.1107 20.5833 13.5417C20.5833 13.9726 20.4121 14.386 20.1074 14.6907C19.8026 14.9955 19.3893 15.1667 18.9583 15.1667ZM9.20833 15.1667C8.77736 15.1667 8.36403 14.9955 8.05928 14.6907C7.75454 14.386 7.58333 13.9726 7.58333 13.5417C7.58333 13.1107 7.75454 12.6974 8.05928 12.3926C8.36403 12.0879 8.77736 11.9167 9.20833 11.9167C9.63931 11.9167 10.0526 12.0879 10.3574 12.3926C10.6621 12.6974 10.8333 13.1107 10.8333 13.5417C10.8333 13.9726 10.6621 14.386 10.3574 14.6907C10.0526 14.9955 9.63931 15.1667 9.20833 15.1667ZM20.4967 4.33333C20.2692 3.68333 19.6517 3.25 18.9583 3.25H9.20833C8.515 3.25 7.8975 3.68333 7.67 4.33333L5.41667 10.8333V19.5C5.41667 19.7873 5.5308 20.0629 5.73397 20.266C5.93713 20.4692 6.21268 20.5833 6.5 20.5833H7.58333C7.87065 20.5833 8.1462 20.4692 8.34937 20.266C8.55253 20.0629 8.66667 19.7873 8.66667 19.5V18.4167H19.5V19.5C19.5 19.7873 19.6141 20.0629 19.8173 20.266C20.0205 20.4692 20.296 20.5833 20.5833 20.5833H21.6667C21.954 20.5833 22.2295 20.4692 22.4327 20.266C22.6359 20.0629 22.75 19.7873 22.75 19.5V10.8333L20.4967 4.33333ZM15.08 1.08333C14.8525 0.433333 14.235 0 13.5417 0H3.79167C3.09833 0 2.48083 0.433333 2.25333 1.08333L0 7.58333V16.25C0 16.5373 0.114137 16.8129 0.317301 17.016C0.520465 17.2192 0.796015 17.3333 1.08333 17.3333H2.16667C2.45398 17.3333 2.72953 17.2192 2.9327 17.016C3.13586 16.8129 3.25 16.5373 3.25 16.25V11.8192C2.405 11.5158 1.97167 10.5842 2.275 9.75C2.51333 9.1 3.10917 8.66667 3.79167 8.66667H3.8675L4.62583 6.5H2.16667L3.79167 1.625H15.2642L15.08 1.08333Z" fill="#0A4BA9"/>
</svg>
