<svg width="22" height="22" viewBox="0 0 22 22" fill="none" xmlns="http://www.w3.org/2000/svg">
<path d="M22 6.99044C21.9978 5.40284 21.456 3.86313 20.4636 2.62399C19.4711 1.38485 18.0869 0.519899 16.5381 0.171069C14.9893 -0.177761 13.3679 0.010257 11.94 0.704268C10.5121 1.39828 9.36257 2.55706 8.68 3.99044H6V5.99044H3.5C3.18761 5.98996 2.88286 6.08703 2.6283 6.26809C2.37373 6.44916 2.18205 6.70518 2.08 7.00044L0 12.9904V20.9904C0 21.2557 0.105357 21.51 0.292893 21.6975C0.48043 21.8851 0.734784 21.9904 1 21.9904H2C2.26522 21.9904 2.51957 21.8851 2.70711 21.6975C2.89464 21.51 3 21.2557 3 20.9904V19.9904H15V20.9904C15 21.2557 15.1054 21.51 15.2929 21.6975C15.4804 21.8851 15.7348 21.9904 16 21.9904H17C17.2652 21.9904 17.5196 21.8851 17.7071 21.6975C17.8946 21.51 18 21.2557 18 20.9904V13.3104C19.1954 12.7421 20.2055 11.8469 20.9133 10.7285C21.6212 9.61005 21.9979 8.31406 22 6.99044ZM3.5 7.49044H8.03C8.14474 9.1956 8.88551 10.7982 10.11 11.9904H2L3.5 7.49044ZM3.5 16.9904C3.10218 16.9904 2.72064 16.8324 2.43934 16.5511C2.15804 16.2698 2 15.8883 2 15.4904C2 15.0926 2.15804 14.7111 2.43934 14.4298C2.72064 14.1485 3.10218 13.9904 3.5 13.9904C3.89782 13.9904 4.27936 14.1485 4.56066 14.4298C4.84196 14.7111 5 15.0926 5 15.4904C5 15.8883 4.84196 16.2698 4.56066 16.5511C4.27936 16.8324 3.89782 16.9904 3.5 16.9904ZM14.5 16.9904C14.1022 16.9904 13.7206 16.8324 13.4393 16.5511C13.158 16.2698 13 15.8883 13 15.4904C13 15.0926 13.158 14.7111 13.4393 14.4298C13.7206 14.1485 14.1022 13.9904 14.5 13.9904C14.8978 13.9904 15.2794 14.1485 15.5607 14.4298C15.842 14.7111 16 15.0926 16 15.4904C16 15.8883 15.842 16.2698 15.5607 16.5511C15.2794 16.8324 14.8978 16.9904 14.5 16.9904ZM17.43 11.3604L17.22 11.4704L17.04 11.5604C16.9025 11.6201 16.7623 11.6735 16.62 11.7204L16.4 11.7904L16.17 11.8504L15.97 11.9004C15.2866 12.0348 14.5826 12.0249 13.9032 11.8714C13.2239 11.7179 12.5841 11.4241 12.0248 11.0089C11.4656 10.5937 10.9993 10.0663 10.6558 9.46039C10.3122 8.85449 10.0991 8.18351 10.03 7.49044C10.0097 7.32454 9.99973 7.15756 10 6.99044L10.02 6.52044L10.04 6.35044L10.08 6.07044L10.12 5.86044L10.17 5.65044L10.24 5.41044L10.29 5.28044C10.6857 4.17089 11.4612 3.2371 12.4792 2.64436C13.4972 2.05161 14.692 1.83812 15.8523 2.04168C17.0126 2.24523 18.0635 2.85271 18.8189 3.75659C19.5743 4.66046 19.9856 5.80245 19.98 6.98044C19.988 7.87234 19.7554 8.74991 19.3067 9.52073C18.8579 10.2915 18.2096 10.9271 17.43 11.3604ZM14 2.99044H16V7.99044H14V2.99044ZM14 8.99044H16V10.9904H14V8.99044Z" fill="#383838"/>
</svg>
