<svg width="20" height="22" viewBox="0 0 20 22" fill="none" xmlns="http://www.w3.org/2000/svg">
<path d="M17.3333 2.16667H12.805C12.35 0.91 11.1583 0 9.75 0C8.34167 0 7.15 0.91 6.695 2.16667H2.16667C0.975 2.16667 0 3.14167 0 4.33333V19.5C0 20.6917 0.975 21.6667 2.16667 21.6667H17.3333C18.525 21.6667 19.5 20.6917 19.5 19.5V4.33333C19.5 3.14167 18.525 2.16667 17.3333 2.16667ZM9.75 2.16667C10.3458 2.16667 10.8333 2.65417 10.8333 3.25C10.8333 3.84583 10.3458 4.33333 9.75 4.33333C9.15417 4.33333 8.66667 3.84583 8.66667 3.25C8.66667 2.65417 9.15417 2.16667 9.75 2.16667ZM11.9167 17.3333H4.33333V15.1667H11.9167V17.3333ZM15.1667 13H4.33333V10.8333H15.1667V13ZM15.1667 8.66667H4.33333V6.5H15.1667V8.66667Z" fill="#0A4BA9"/>
</svg>
